<?xml version="1.0" encoding="UTF-8" standalone="no"?>
<svg
   xmlns:dc="http://purl.org/dc/elements/1.1/"
   xmlns:cc="http://creativecommons.org/ns#"
   xmlns:rdf="http://www.w3.org/1999/02/22-rdf-syntax-ns#"
   xmlns:svg="http://www.w3.org/2000/svg"
   xmlns="http://www.w3.org/2000/svg"
   xmlns:sodipodi="http://sodipodi.sourceforge.net/DTD/sodipodi-0.dtd"
   xmlns:inkscape="http://www.inkscape.org/namespaces/inkscape"
   inkscape:version="1.0beta1 (32d4812, 2019-09-19)"
   sodipodi:docname="icon.svg"
   id="svg4847"
   version="1.1"
   viewBox="-304 -304 608 608"
   height="608"
   width="608">
  <metadata
     id="metadata4853">
    <rdf:RDF>
      <cc:Work
         rdf:about="">
        <dc:format>image/svg+xml</dc:format>
        <dc:type
           rdf:resource="http://purl.org/dc/dcmitype/StillImage" />
      </cc:Work>
    </rdf:RDF>
  </metadata>
  <defs
     id="defs4851">
    <filter
       height="1.048"
       y="-0.024"
       width="1.048"
       x="-0.024"
       id="filter5024"
       style="color-interpolation-filters:sRGB"
       inkscape:collect="always">
      <feGaussianBlur
         id="feGaussianBlur5026"
         stdDeviation="5.76"
         inkscape:collect="always" />
    </filter>
  </defs>
  <sodipodi:namedview
     inkscape:document-rotation="0"
     inkscape:current-layer="svg4847"
     inkscape:window-maximized="0"
     inkscape:window-y="23"
     inkscape:window-x="0"
     inkscape:cy="560"
     inkscape:cx="400"
     inkscape:zoom="0.35"
     showgrid="false"
     id="namedview4849"
     inkscape:window-height="855"
     inkscape:window-width="1440"
     inkscape:pageshadow="2"
     inkscape:pageopacity="0"
     guidetolerance="10"
     gridtolerance="10"
     objecttolerance="10"
     borderopacity="1"
     bordercolor="#666666"
     pagecolor="#ffffff" />
  <title
     id="title4843">Squircle: x to 4th plus y to 4th equals radius to 4th</title>
  <path
     inkscape:connector-curvature="0"
     d="m 4,296 c 126.2,0 196.3563,0 242.1782,-45.8218 C 292,204.3563 292,134.2 292,8 292,-118.2 292,-188.3563 246.1782,-234.1782 200.3563,-280 130.2,-280 4,-280 c -126.2,0 -196.3563,0 -242.1782,45.8218 C -284,-188.3563 -284,-118.2 -284,8 c 0,126.2 0,196.3563 45.8218,242.1782 C -192.3563,296 -122.2,296 4,296 Z"
     id="path4982"
     style="fill:#000000;fill-opacity:1;stroke:#1a1a1a;stroke-width:4.03999996;filter:url(#filter5024)" />
  <path
     fill="none"
     stroke="#000000"
     stroke-width="4.04"
     style="fill-opacity:1;fill:#303f9f;stroke:none;stroke-width:7.55905512;stroke-miterlimit:4;stroke-dasharray:none;stroke-opacity:1"
     id="path4845"
     d="M0,288 C126.2,288,196.3563,288,242.1782,242.1782 C288,196.3563,288,126.2,288,0 C288,-126.2,288,-196.3563,242.1782,-242.1782 C196.3563,-288,126.2,-288,0,-288 C-126.2,-288,-196.3563,-288,-242.1782,-242.1782 C-288,-196.3563,-288,-126.2,-288,0 C-288,126.2,-288,196.3563,-242.1782,242.1782 C-196.3563,288,-126.2,288,0,288Z" />
  <g
     transform="matrix(1.6285877,0,0,1.6285877,-195.75784,-242.01541)"
     id="g2427"
     style="fill:#9ccc65;fill-opacity:1;stroke:#2e7d32;stroke-opacity:1">
    <path
       style="opacity:1;fill:#9ccc65;fill-opacity:1;stroke:#2e7d32;stroke-opacity:1"
       id="path10"
       d="m 5.940481,14.4702 c 0.1,3.2 0.6,5.6 1.1,5.4 0.4,-0.3 0.7,1.3 0.4,3.5 -0.2,2.2 0.1,3.8 0.5,3.5 0.5,-0.3 0.8,1.3 0.5,3.5 -0.2,2.2 0.1,3.8 0.6,3.5 0.4,-0.3 0.7,1 0.4,3 -0.2,2 0,3.3 0.5,3 0.6,-0.3 0.8,1 0.5,3 -0.2,2 -0.1,3.4 0.3,3.2 0.9,-0.6 2.1,12.3 1.3,13.7 -0.5,0.7 -0.2,0.8 0.6,0.3 0.9,-0.6 1.1,0.2 0.8,3.3 -0.2,2.2 -0.1,3.9 0.3,3.7 0.9,-0.6 3.1,18.3 2.3,19.6 -0.5,0.8 -0.3,0.9 0.6,0.4 0.9,-0.6 1.1,0.2 0.8,3.3 -0.2,2.2 -0.1,3.9 0.3,3.6 0.8,-0.4 2.1,9.1 2.3,16.3 0,2.8 0.4,4.9 0.9,4.6 0.4,-0.2 0.7,0.8 0.7,2.4 0,1.5 0.4,4.3 0.9,6.1 0.6,1.8 0.6,3 0.3,2.8 -0.4,-0.3 -0.8,0.4 -0.8,1.4 0,1 0.4,1.6 1,1.3 0.5,-0.4 0.7,1.3 0.4,4.2 -0.4,2.9 -0.2,4.2 0.3,3.4 0.6,-1 0.9,-0.4 0.9,1.8 0,1.7 0.4,3.5 1,3.8 0.5,0.3 1,1.1 1,1.6 0,0.6 -0.6,0.7 -1.2,0.3 -1,-0.6 -1,-0.5 -0.1,0.8 0.7,0.8 0.9,1.9 0.5,2.3 -0.4,0.5 -0.1,0.5 0.7,0 1.1,-0.6 1.3,-0.3 0.9,1.3 -0.4,1.4 -0.2,2 0.4,1.6 0.7,-0.5 0.9,0.2 0.6,1.9 -0.3,1.6 -0.1,2.4 0.5,2 0.6,-0.4 0.8,0.4 0.5,2.1 -0.3,1.5 -0.3,2.4 0,2.1 0.5,-0.5 2.2,2.1 4.3,6.5 0.6,1.4 1.5,3.3 2,4.2 0.5,1.1 0.5,2.8 -0.2,4.5 -0.9,2.4 -0.7,3 1.5,4.8 1.4,1.2 2.6,2.5 2.6,3.1 0,0.6 -1.9,2.7 -4.3,4.7 -4.2,3.5 -4.7,4.8 -4.7,11.1 -0.1,1.6 -1,4.5 -2.1,6.3 -1.5,2.3 -2,4.6 -1.7,7.2 0.2,2.2 -0.1,3.7 -0.5,3.4 -0.5,-0.3 -0.4,0.4 0.2,1.4 0.6,1.1 0.8,2.3 0.5,2.6 -0.3,0.3 0,0.8 0.7,1.3 0.8,0.5 1,0.3 0.4,-0.7 -0.6,-1.1 -0.5,-1.2 0.5,-0.2 0.8,0.7 1.4,2.8 1.4,4.7 0.1,1.9 0.5,3.2 1,2.8 0.5,-0.3 0.6,0.5 0.3,1.9 -0.4,1.3 -0.7,2.8 -0.7,3.2 0,0.5 -0.4,0.6 -0.8,0.3 -0.4,-0.2 -0.9,0.5 -0.9,1.7 -0.2,1.8 0,1.9 0.8,0.7 0.9,-1.2 1,-1.1 0.4,0.5 -1.3,4.1 -2.3,10.7 -1.7,12.7 0.4,1.6 0.2,1.9 -0.9,1.2 -0.9,-0.5 -0.8,0 0.4,1.6 3.1,4.4 8.1,16.6 9.4,23 1.3,6.7 1.3,6.7 16.6,7.5 7.8,0.4 15.5,0.9 17.2,1 1.7,0.1 8.4,0.6 15,0.9 6.6,0.4 13.6,0.9 15.499999,1.1 1.9,0.2 8.9,0.7 15.5,1 6.6,0.3 17.4,1 24,1.5 10.4,0.8 26.9,1.8 40,2.5 2.7,0.1 3.9,0.6 3.7,1.5 -0.2,0.7 0.2,2.6 0.9,4.2 0.9,2.2 0.9,3.1 -0.2,4.5 -1,1.1 -1,1.4 -0.1,0.9 0.7,-0.4 1.2,-0.2 1.2,0.7 0,0.9 1.2,1.4 3.5,1.4 2.9,0 3.5,-0.4 3.6,-2.1 0,-1.2 0.4,-4.4 0.8,-7.3 0.5,-3.3 0.4,-5 -0.2,-4.6 -0.6,0.4 -0.8,-0.3 -0.5,-1.5 0.4,-1.2 0.2,-2 -0.3,-1.6 -0.5,0.3 -0.9,-0.4 -0.9,-1.6 0,-1.4 0.4,-1.9 1.3,-1.4 0.8,0.6 0.8,0.3 -0.1,-0.9 -2.2,-2.7 -0.3,-6.4 3.1,-5.8 0.4,0 0.7,-0.6 0.7,-1.4 0,-0.9 1,-1.5 2.6,-1.5 1.4,0 2.3,0.4 2,0.8 -0.2,0.4 0.5,0.9 1.7,0.9 1.2,0.1 2.3,0.7 2.5,1.3 0.2,0.5 0.8,0.7 1.3,0.4 0.6,-0.3 1.5,-0.1 2.2,0.4 2.1,1.7 11,3.2 12.4,2 0.7,-0.6 1,-1.5 0.6,-2 -1.2,-2.1 -1,-8 0.4,-9.4 1.3,-1.2 1.2,-1.4 -0.1,-1.4 -2.3,0 -2,-1.3 0.9,-4 1.9,-1.8 2.2,-2.6 1.3,-3.2 -1,-0.6 -1,-0.8 0,-0.8 0.7,0 1,-0.5 0.7,-1 -1.7,-2.8 -1.4,-7.8 0.7,-12.2 2.2,-4.5 5.8,-7.9 4.4,-4.1 -0.6,1.4 -0.4,1.5 0.5,0.6 1.2,-1.2 0.3,-3.7 -1.1,-2.8 -0.5,0.3 -0.7,-1.4 -0.5,-3.7 0.2,-2.4 0.9,-4.4 1.5,-4.6 0.8,-0.3 0.8,-0.8 0,-1.7 -1.3,-1.5 0.4,-3 3.4,-3 1.3,0 2,-0.8 2.2,-2.8 0.1,-1.5 -0.2,-2.7 -0.7,-2.7 -0.6,0 -0.7,-0.5 -0.3,-1.1 0.4,-0.8 0.9,-0.7 1.5,0.2 0.5,0.8 0.9,0.9 0.9,0.4 0,-0.6 -0.5,-1.6 -1.1,-2.2 -1.4,-1.4 2.5,-4.2 5.5,-3.9 3.5,0.4 3.2,-3.3 -0.4,-4.5 -3.5,-1.3 -4.6,-3.7 -2.5,-5.8 1.1,-1.1 1.5,-1.2 1.5,-0.3 0,0.7 0.4,1.1 0.9,0.8 0.5,-0.3 2.1,0.1 3.7,0.9 3.1,1.6 5.6,0.8 3.1,-1 -2.3,-1.6 -2.1,-3.2 0.3,-4 1.1,-0.3 1.9,-1.1 1.7,-1.7 -0.4,-2.3 -3.2,-4.8 -5.4,-4.8 -3.2,0 -5.6,-2.8 -5.1,-6.1 0.3,-1.5 0.1,-2.6 -0.4,-2.3 -0.4,0.3 -0.8,-0.6 -0.8,-2 0,-1.4 0.5,-2.8 1,-3.1 0.6,-0.4 0.2,-1.3 -0.9,-2.3 -1.1,-0.9 -2.2,-3 -2.4,-4.5 -0.4,-3.4 -5.1,-8.6 -8.9,-9.9 -3.3,-1.2 -4.1,-3.6 -4.2,-12.4 -0.1,-4.2 -0.5,-6 -1.2,-5.7 -1,0.4 -4.1,-6.1 -3.7,-7.7 0.8,-3.7 0.7,-4.5 -1.2,-4.5 -1.1,0 -1.9,-0.6 -1.7,-1.3 0.1,-0.8 -0.2,-1.1 -0.7,-0.7 -2.1,1.3 -9.1,-3.6 -13,-9.1 -2.2,-3.1 -3.8,-6 -3.6,-6.4 0.3,-0.4 -0.3,-0.7 -1.3,-0.6 -1.3,0.1 -1.8,-0.8 -2,-3.8 -0.2,-2.2 -1.1,-4.5 -1.9,-5.1 -0.9,-0.7 -1.3,-1.6 -1,-2.2 0.3,-0.5 -1.4,-2 -3.9,-3.2 -2.4,-1.2 -4.2,-2.7 -3.9,-3.2 0.4,-0.5 0,-0.6 -0.8,-0.3 -1.7,0.6 -5.1,-5.2 -4,-6.9 0.3,-0.6 0.1,-0.7 -0.5,-0.3 -0.7,0.4 -1.2,0.2 -1.2,-0.4 0,-1.4 -4.7,-5.8 -8.3,-7.6 -1.6,-0.9 -2.5,-2 -2.1,-2.6 0.4,-0.7 0.3,-0.8 -0.4,-0.4 -1.3,0.8 -6.4,-3.3 -5.6,-4.6 0.3,-0.5 0.1,-0.7 -0.4,-0.6 -0.6,0.2 -1.1,-0.1 -1.2,-0.7 -0.1,-0.6 -1,-2.4 -2.1,-4.1 -1,-1.7 -1.5,-3.4 -1.1,-3.8 0.4,-0.4 0.3,-0.7 -0.3,-0.6 -2.4,0.5 -3.6,-0.1 -3.4,-1.8 0.3,-2.1 -0.9,-5.1 -2.9,-7.4 -0.8,-1 -1.2,-2.4 -0.8,-3.3 0.3,-0.9 0.2,-1.3 -0.4,-1 -1.2,0.7 -3.3,-3.3 -2.6,-5 0.6,-1.6 -2.4,-2.9 -6.9,-3 -1.9,0 -2.9,-0.5 -2.7,-1.3 0.1,-0.8 -0.2,-1.1 -0.7,-0.8 -0.5,0.3 -2.2,-0.7 -3.8,-2.4 -1.5,-1.6 -3.1,-3 -3.5,-3 -1.9,0 -8.7,-5.7 -8.8,-7.3 0,-3.4 2.7,-8.2 6.7,-11.8 2.2,-2 4.3,-4.2 4.7,-4.8 0.5,-0.8 -15.9,-1.1 -62.799999,-1.1 h -63.5 z"
       inkscape:connector-curvature="0" />
    <path
       style="opacity:1;fill:#9ccc65;fill-opacity:1;stroke:#2e7d32;stroke-opacity:1"
       id="path12"
       d="m 252.64048,197.0702 c 0,0.8 0.4,1.5 1,1.5 0.6,0 1,-0.7 1,-1.5 0,-0.8 -0.4,-1.5 -1,-1.5 -0.6,0 -1,0.7 -1,1.5 z"
       inkscape:connector-curvature="0" />
    <path
       style="opacity:1;fill:#9ccc65;fill-opacity:1;stroke:#2e7d32;stroke-opacity:1"
       id="path14"
       d="m 239.14048,219.4702 c -0.3,0.5 -0.2,1.2 0.3,1.5 0.5,0.3 0.9,-0.1 0.9,-0.9 0,-1.7 -0.3,-1.9 -1.2,-0.6 z"
       inkscape:connector-curvature="0" />
    <path
       style="opacity:1;fill:#9ccc65;fill-opacity:1;stroke:#2e7d32;stroke-opacity:1"
       id="path16"
       d="m 234.44048,229.7702 c -2.1,2.5 -2.2,3.4 -0.8,4.3 0.6,0.3 1,0 1,-0.8 0,-0.8 0.7,-2 1.5,-2.7 1.6,-1.3 2,-3 0.8,-3 -0.5,0 -1.6,1 -2.5,2.2 z"
       inkscape:connector-curvature="0" />
    <path
       style="opacity:1;fill:#9ccc65;fill-opacity:1;stroke:#2e7d32;stroke-opacity:1"
       id="path18"
       d="m 228.64048,243.6702 c 0,1 -0.5,1.9 -1.1,1.9 -0.6,0 -0.9,1 -0.7,2.2 0.2,1.3 0.7,2.3 1.3,2.3 0.6,0 1.4,-1 2,-2.3 0.5,-1.2 1.3,-2.2 1.7,-2.2 1.7,0 0.7,-2.8 -1.2,-3.3 -1.5,-0.4 -2,0 -2,1.4 z"
       inkscape:connector-curvature="0" />
    <path
       style="opacity:1;fill:#9ccc65;fill-opacity:1;stroke:#2e7d32;stroke-opacity:1"
       id="path20"
       d="m 224.74048,266.8702 c -0.7,0.9 -1,2.5 -0.6,3.4 0.6,1.7 0.7,1.7 1.6,0 0.6,-1 0.9,-2.5 0.7,-3.4 -0.3,-1.5 -0.4,-1.5 -1.7,0 z"
       inkscape:connector-curvature="0" />
  </g>
</svg>
